{"title":"Secretariat 2010 Screener Xvid LKRG","uid":6065435,"size":1084810101,"categoryP":"video","categoryS":"movies","magnet":"?xt=urn:btih:f41788e826d131305f25572d9b9a478fade80da5&amp;dn=Secretariat+2010+Screener+Xvid+LKRG&amp;tr=udp%3A%2F%2Ftracker.openbittorrent.com%3A80&amp;tr=udp%3A%2F%2Fopen.demonii.com%3A1337&amp;tr=udp%3A%2F%2Ftracker.coppersurfer.tk%3A6969&amp;tr=udp%3A%2F%2Fexodus.desync.com%3A6969","seeders":0,"leechers":0,"uploader":"hiest","files":-1,"time":1293336434,"description":"Housewife and mother Penny Chenery agrees to take over her ailing father's Virginia-based Meadow Stables, despite her lack of horse-racing knowledge. Against all odds, Chenery -- with the help of veteran trainer Lucien Laurin -- manages to navigate the male-dominated business, ultimately fostering the first Triple Crown winner in twenty-five years. \n\n\nEncoded By .......:Xclusive \n\nRuntime ..........:1:59 \n\nIMDb URL .........:http://www.imdb.com/title/tt1028576/\n\nLanguage .........:English\n\nFile Size ........:1.01gb\n\n\n\nÃ‚Â¦Ã‚Â¦Ã‚Â¦ Ã‚Â¦Ã‚Â¦Ã‚Â¦ \n\nÃ‚Â¦Ã‚Â¦Ã‚Â¦Ã‚Â¦Ã‚Â¦_______________________ Audio/Video _____________________________Ã‚Â¦Ã‚Â¦Ã‚Â¦Ã‚Â¦Ã‚Â¦ \n\nVideo\n\nID : 0\n\nFormat : MPEG-4 Visual\n\nFormat profile : Advanced Simple@L5\n\nFormat settings, BVOP : Yes\n\nFormat settings, QPel : No\n\nFormat settings, GMC : No warppoints\n\nFormat settings, Matrix : Custom\n\nCodec ID : XVID\n\nCodec ID/Hint : XviD\n\nDuration : 1h 59mn\n\nBit rate : 1 075 Kbps\n\nWidth : 680 pixels\n\nHeight : 368 pixels\n\nDisplay aspect ratio : 16:9\n\nFrame rate : 29.970 fps\n\nColor space : YUV\n\nChroma subsampling : 4:2:0\n\nBit depth : 8 bits\n\nScan type : Progressive\n\nBits/(Pixel*Frame) : 0.143\n\nStream size : 918 MiB (89%)\n\nWriting library : XviD 1.2.1 (UTC 2008-12-04)\n\n\n\nAudio\n\nID : 1\n\nFormat : AC-3\n\nFormat/Info : Audio Coding 3\n\nMode extension : CM (complete main)\n\nCodec ID : 2000\n\nDuration : 1h 59mn\n\nBit rate mode : Constant\n\nBit rate : 128 Kbps\n\nChannel(s) : 2 channels\n\nChannel positions : Front: L R\n\nSampling rate : 48.0 KHz\n\nBit depth : 16 bits\n\nStream size : 109 MiB (11%)\n\nAlignment : Aligned on interleaves\n\nInterleave, duration : 33 ms (1.00 video frame)\n\nInterleave, preload duration : 512 ms\n\n\n\nVIDEo:Own\n\nAUDIO:Own\n\n\n\nJust a simple rip from our vob's blurred the watermark in tne bottom right corner adjusted colors usual video filters\n\n\n\n\n\n\n================================== &lt;a href=&quot;\nhttp://thepiratebay.se/user/hiest&quot; rel=&quot;nofollow&quot; target=&quot;_NEW&quot;&gt;\nhttp://thepiratebay.se/user/hiest&lt;/a&gt;\n==================================\n\n\n\n\n\n\nScreen Shots:\n &lt;a href=&quot;\nhttp://www.grinshare.com/img/X059XA.png&quot; rel=&quot;nofollow&quot; target=&quot;_NEW&quot;&gt;\nhttp://www.grinshare.com/img/X059XA.png&lt;/a&gt;\n &lt;a href=&quot;\nhttp://www.grinshare.com/img/IAA1TM.png&quot; rel=&quot;nofollow&quot; target=&quot;_NEW&quot;&gt;\nhttp://www.grinshare.com/img/IAA1TM.png&lt;/a&gt;\n &lt;a href=&quot;\nhttp://www.grinshare.com/img/CZ06RV.png&quot; rel=&quot;nofollow&quot; target=&quot;_NEW&quot;&gt;\nhttp://www.grinshare.com/img/CZ06RV.png&lt;/a&gt;\n\n","torrent":{"xt":"urn:btih:f41788e826d131305f25572d9b9a478fade80da5","amp;dn":"Secretariat+2010+Screener+Xvid+LKRG","amp;tr":["udp%3A%2F%2Ftracker.openbittorrent.com%3A80","udp%3A%2F%2Fopen.demonii.com%3A1337","udp%3A%2F%2Ftracker.coppersurfer.tk%3A6969","udp%3A%2F%2Fexodus.desync.com%3A6969"],"infoHash":"f41788e826d131305f25572d9b9a478fade80da5","infoHashBuffer":{"type":"Buffer","data":[244,23,136,232,38,209,49,48,95,37,87,45,155,154,71,143,173,232,13,165]},"announce":[],"urlList":[]}}